<svg xmlns="http://www.w3.org/2000/svg" version="1.1" xmlns:xlink="http://www.w3.org/1999/xlink" width="512" height="512" x="0" y="0" viewBox="0 0 96 96" style="enable-background:new 0 0 512 512" xml:space="preserve" class=""><g><path d="m87.656 76.344-21-21a2 2 0 0 0-2.828 0L61 58.172l-4.435-4.435C61.188 48.457 64 41.553 64 34 64 17.458 50.542 4 34 4S4 17.458 4 34s13.458 30 30 30c7.553 0 14.457-2.812 19.737-7.435L58.172 61l-2.828 2.828a2 2 0 0 0 0 2.828l21 21C77.854 89.168 79.863 90 82 90s4.146-.832 5.656-2.344C89.168 86.146 90 84.137 90 82s-.832-4.146-2.344-5.656zM34 60C19.663 60 8 48.336 8 34S19.663 8 34 8s26 11.664 26 26-11.663 26-26 26zm14.143-38.142a1.992 1.992 0 0 1-1.414-.586c-7.02-7.019-18.438-7.019-25.457 0a2 2 0 1 1-2.828-2.828c8.578-8.578 22.535-8.578 31.113 0a2 2 0 0 1-1.414 3.414z" fill="#9069cd" opacity="1" data-original="#000000" class=""></path></g></svg>