<svg xmlns="http://www.w3.org/2000/svg" version="1.1" xmlns:xlink="http://www.w3.org/1999/xlink" width="512" height="512" x="0" y="0" viewBox="0 0 40 40" style="enable-background:new 0 0 512 512" xml:space="preserve" class=""><g><path d="M20 0C8.973 0 0 8.973 0 20s8.973 20 20 20 20-8.973 20-20S31.027 0 20 0zm8.796 21.477-5.332 6.279a2.276 2.276 0 0 1-3.216.262 2.281 2.281 0 0 1-.263-3.215l2.142-2.521h-9.186a2.28 2.28 0 1 1 0-4.562h9.186l-2.142-2.521a2.282 2.282 0 1 1 3.479-2.953l5.332 6.279c.724.85.724 2.1 0 2.952z" fill="#9069cd" opacity="1" data-original="#000000" class=""></path></g></svg>